<svg viewBox="0 0 64 64" xmlns="http://www.w3.org/2000/svg">
<defs><linearGradient id="tw-b" x1="0" y1="0" x2="0" y2="1"><stop offset="0" stop-color="#ff5d50"/><stop offset="1" stop-color="#d62f23"/></linearGradient></defs>
<path d="M11 28c-3-1-6 0-8 2 2 1 4 3 4 6 3-1 5-4 4-8z" fill="#bf2a1f"/>
<path d="M24 13c-1-5 0-9 2-12 1 3 2 5 4 7z" fill="#c52f24"/>
<path d="M40 13c1-5 0-9-2-12-1 3-2 5-4 7z" fill="#c52f24"/>
<circle cx="32" cy="33" r="22" fill="url(#tw-b)"/>
<path d="M22 41a10 9 0 0 0 20 0z" fill="#ffd8a8"/>
<circle cx="26.5" cy="30" r="8" fill="#fff"/>
<circle cx="37.5" cy="30" r="8" fill="#fff"/>
<circle cx="29" cy="31" r="3.1" fill="#15202b"/>
<circle cx="35" cy="31" r="3.1" fill="#15202b"/>
<path d="M16 20l15 6-2 5-14-7z" fill="#1d2530"/>
<path d="M48 20l-15 6 2 5 14-7z" fill="#1d2530"/>
<path d="M27 35h10l-2 5h-6z" fill="#ffb02e"/>
<path d="M29 40h6l-3 3.5z" fill="#ef8c1c"/>
</svg>
